<svg width="106" height="106" viewBox="0 0 106 106" fill="none" xmlns="http://www.w3.org/2000/svg">
<path d="M40.8542 53C40.8542 52.1215 41.2032 51.2789 41.8244 50.6577C42.4456 50.0365 43.2881 49.6875 44.1667 49.6875H49.6875V44.1667C49.6875 43.2881 50.0365 42.4456 50.6577 41.8244C51.2789 41.2032 52.1215 40.8542 53 40.8542C53.8785 40.8542 54.7211 41.2032 55.3423 41.8244C55.9635 42.4456 56.3125 43.2881 56.3125 44.1667V49.6875H61.8333C62.7119 49.6875 63.5544 50.0365 64.1756 50.6577C64.7968 51.2789 65.1458 52.1215 65.1458 53C65.1458 53.8785 64.7968 54.7211 64.1756 55.3423C63.5544 55.9635 62.7119 56.3125 61.8333 56.3125H56.3125V61.8333C56.3125 62.7119 55.9635 63.5544 55.3423 64.1756C54.7211 64.7968 53.8785 65.1458 53 65.1458C52.1215 65.1458 51.2789 64.7968 50.6577 64.1756C50.0365 63.5544 49.6875 62.7119 49.6875 61.8333V56.3125H44.1667C43.2881 56.3125 42.4456 55.9635 41.8244 55.3423C41.2032 54.7211 40.8542 53.8785 40.8542 53Z" fill="black"/>
<path fill-rule="evenodd" clip-rule="evenodd" d="M53 5.52084C26.7783 5.52084 5.52084 26.7783 5.52084 53C5.52084 79.2218 26.7783 100.479 53 100.479C79.2218 100.479 100.479 79.2218 100.479 53C100.479 26.7783 79.2218 5.52084 53 5.52084ZM49.6875 12.2783C40.0282 13.0637 30.9626 17.2572 24.1099 24.1099C17.2572 30.9626 13.0637 40.0282 12.2783 49.6875H22.0833C22.9619 49.6875 23.8044 50.0365 24.4256 50.6577C25.0469 51.2789 25.3958 52.1215 25.3958 53C25.3958 53.8785 25.0469 54.7211 24.4256 55.3423C23.8044 55.9635 22.9619 56.3125 22.0833 56.3125H12.2783C13.0637 65.9718 17.2572 75.0374 24.1099 81.8901C30.9626 88.7428 40.0282 92.9363 49.6875 93.7217V83.9167C49.6875 83.0382 50.0365 82.1956 50.6577 81.5744C51.2789 80.9532 52.1215 80.6042 53 80.6042C53.8785 80.6042 54.7211 80.9532 55.3423 81.5744C55.9635 82.1956 56.3125 83.0382 56.3125 83.9167V93.7217C65.9718 92.9363 75.0374 88.7428 81.8901 81.8901C88.7428 75.0374 92.9363 65.9718 93.7217 56.3125H83.9167C83.0382 56.3125 82.1956 55.9635 81.5744 55.3423C80.9532 54.7211 80.6042 53.8785 80.6042 53C80.6042 52.1215 80.9532 51.2789 81.5744 50.6577C82.1956 50.0365 83.0382 49.6875 83.9167 49.6875H93.7217C92.9363 40.0282 88.7428 30.9626 81.8901 24.1099C75.0374 17.2572 65.9718 13.0637 56.3125 12.2783V22.0833C56.3125 22.9619 55.9635 23.8044 55.3423 24.4256C54.7211 25.0469 53.8785 25.3958 53 25.3958C52.1215 25.3958 51.2789 25.0469 50.6577 24.4256C50.0365 23.8044 49.6875 22.9619 49.6875 22.0833V12.2783Z" fill="black"/>
</svg>
